<svg viewBox="0 0 1000 600" xmlns="http://www.w3.org/2000/svg" role="img" aria-labelledby="ttl desc">
  <title id="ttl">Scan a ScanSolve QR label, report a fault on your phone</title>
  <desc id="desc">A printed ScanSolve QR label beside a phone showing the report form for Meeting Room 5.</desc>
  <style>text{font-family:'Inter',system-ui,-apple-system,'Segoe UI',Roboto,sans-serif;}</style>
  <defs>
    <linearGradient id="brand" x1="0" y1="0" x2="1" y2="1"><stop offset="0" stop-color="#4f46e5"/><stop offset="1" stop-color="#7c3aed"/></linearGradient>
    <linearGradient id="bg" x1="0" y1="0" x2="0" y2="1"><stop offset="0" stop-color="#eef2ff"/><stop offset="1" stop-color="#f4f0ff"/></linearGradient>
    <filter id="soft" x="-40%" y="-40%" width="180%" height="180%"><feDropShadow dx="0" dy="12" stdDeviation="16" flood-color="#312e81" flood-opacity="0.18"/></filter>
    <filter id="blur" x="-60%" y="-60%" width="220%" height="220%"><feGaussianBlur stdDeviation="46"/></filter>
  </defs>
  <rect width="1000" height="600" fill="url(#bg)"/>
  <circle cx="885" cy="95" r="165" fill="#a5b4fc" opacity="0.22" filter="url(#blur)"/>
  <circle cx="115" cy="520" r="150" fill="#c4b5fd" opacity="0.18" filter="url(#blur)"/>
  <ellipse cx="742" cy="548" rx="140" ry="16" fill="#0b1220" opacity="0.10"/>
  <ellipse cx="250" cy="478" rx="108" ry="12" fill="#4f46e5" opacity="0.07"/>
  <path d="M356 236 C 440 180, 520 168, 600 184" fill="none" stroke="#6366f1" stroke-width="2.5" stroke-linecap="round" stroke-dasharray="1 9" opacity="0.55"/>
  <circle cx="600" cy="184" r="7" fill="#10b981"/>
  <path d="M596 184 l3 3 l6 -7" fill="none" stroke="#fff" stroke-width="1.6" stroke-linecap="round" stroke-linejoin="round"/>
  <g transform="rotate(-7 250 320)" filter="url(#soft)">
    <rect x="126" y="176" width="248" height="288" rx="22" fill="#ffffff"/>
    <rect x="152" y="200" width="28" height="28" rx="8" fill="url(#brand)"/>
    <g fill="#fff"><rect x="158" y="206" width="6" height="6" rx="1"/><rect x="168" y="206" width="6" height="6" rx="1"/><rect x="158" y="216" width="6" height="6" rx="1"/><rect x="168" y="216" width="6" height="6" rx="1"/></g>
    <text x="190" y="221" font-size="15" font-weight="700" fill="#0f172a">ScanSolve</text>
    <g fill="#0f172a" shape-rendering="crispEdges"><rect x="164.00" y="250.00" width="6.26" height="6.26"/><rect x="169.86" y="250.00" width="6.26" height="6.26"/><rect x="175.72" y="250.00" width="6.26" height="6.26"/><rect x="181.59" y="250.00" width="6.26" height="6.26"/><rect x="187.45" y="250.00" width="6.26" height="6.26"/><rect x="193.31" y="250.00" width="6.26" height="6.26"/><rect x="199.17" y="250.00" width="6.26" height="6.26"/><rect x="210.90" y="250.00" width="6.26" height="6.26"/><rect x="222.62" y="250.00" width="6.26" height="6.26"/><rect x="234.34" y="250.00" width="6.26" height="6.26"/><rect x="240.21" y="250.00" width="6.26" height="6.26"/><rect x="246.07" y="250.00" width="6.26" height="6.26"/><rect x="269.52" y="250.00" width="6.26" height="6.26"/><rect x="292.97" y="250.00" width="6.26" height="6.26"/><rect x="298.83" y="250.00" width="6.26" height="6.26"/><rect x="304.69" y="250.00" width="6.26" height="6.26"/><rect x="310.55" y="250.00" width="6.26" height="6.26"/><rect x="316.41" y="250.00" width="6.26" height="6.26"/><rect x="322.28" y="250.00" width="6.26" height="6.26"/><rect x="328.14" y="250.00" width="6.26" height="6.26"/><rect x="164.00" y="255.86" width="6.26" height="6.26"/><rect x="199.17" y="255.86" width="6.26" height="6.26"/><rect x="210.90" y="255.86" width="6.26" height="6.26"/><rect x="222.62" y="255.86" width="6.26" height="6.26"/><rect x="228.48" y="255.86" width="6.26" height="6.26"/><rect x="263.66" y="255.86" width="6.26" height="6.26"/><rect x="275.38" y="255.86" width="6.26" height="6.26"/><rect x="281.24" y="255.86" width="6.26" height="6.26"/><rect x="292.97" y="255.86" width="6.26" height="6.26"/><rect x="328.14" y="255.86" width="6.26" height="6.26"/><rect x="164.00" y="261.72" width="6.26" height="6.26"/><rect x="175.72" y="261.72" width="6.26" height="6.26"/><rect x="181.59" y="261.72" width="6.26" height="6.26"/><rect x="187.45" y="261.72" width="6.26" height="6.26"/><rect x="199.17" y="261.72" width="6.26" height="6.26"/><rect x="210.90" y="261.72" width="6.26" height="6.26"/><rect x="222.62" y="261.72" width="6.26" height="6.26"/><rect x="234.34" y="261.72" width="6.26" height="6.26"/><rect x="240.21" y="261.72" width="6.26" height="6.26"/><rect x="281.24" y="261.72" width="6.26" height="6.26"/><rect x="292.97" y="261.72" width="6.26" height="6.26"/><rect x="304.69" y="261.72" width="6.26" height="6.26"/><rect x="310.55" y="261.72" width="6.26" height="6.26"/><rect x="316.41" y="261.72" width="6.26" height="6.26"/><rect x="328.14" y="261.72" width="6.26" height="6.26"/><rect x="164.00" y="267.59" width="6.26" height="6.26"/><rect x="175.72" y="267.59" width="6.26" height="6.26"/><rect x="181.59" y="267.59" width="6.26" height="6.26"/><rect x="187.45" y="267.59" width="6.26" height="6.26"/><rect x="199.17" y="267.59" width="6.26" height="6.26"/><rect x="222.62" y="267.59" width="6.26" height="6.26"/><rect x="240.21" y="267.59" width="6.26" height="6.26"/><rect x="257.79" y="267.59" width="6.26" height="6.26"/><rect x="263.66" y="267.59" width="6.26" height="6.26"/><rect x="281.24" y="267.59" width="6.26" height="6.26"/><rect x="292.97" y="267.59" width="6.26" height="6.26"/><rect x="304.69" y="267.59" width="6.26" height="6.26"/><rect x="310.55" y="267.59" width="6.26" height="6.26"/><rect x="316.41" y="267.59" width="6.26" height="6.26"/><rect x="328.14" y="267.59" width="6.26" height="6.26"/><rect x="164.00" y="273.45" width="6.26" height="6.26"/><rect x="175.72" y="273.45" width="6.26" height="6.26"/><rect x="181.59" y="273.45" width="6.26" height="6.26"/><rect x="187.45" y="273.45" width="6.26" height="6.26"/><rect x="199.17" y="273.45" width="6.26" height="6.26"/><rect x="210.90" y="273.45" width="6.26" height="6.26"/><rect x="216.76" y="273.45" width="6.26" height="6.26"/><rect x="234.34" y="273.45" width="6.26" height="6.26"/><rect x="240.21" y="273.45" width="6.26" height="6.26"/><rect x="246.07" y="273.45" width="6.26" height="6.26"/><rect x="257.79" y="273.45" width="6.26" height="6.26"/><rect x="263.66" y="273.45" width="6.26" height="6.26"/><rect x="275.38" y="273.45" width="6.26" height="6.26"/><rect x="292.97" y="273.45" width="6.26" height="6.26"/><rect x="304.69" y="273.45" width="6.26" height="6.26"/><rect x="310.55" y="273.45" width="6.26" height="6.26"/><rect x="316.41" y="273.45" width="6.26" height="6.26"/><rect x="328.14" y="273.45" width="6.26" height="6.26"/><rect x="164.00" y="279.31" width="6.26" height="6.26"/><rect x="199.17" y="279.31" width="6.26" height="6.26"/><rect x="228.48" y="279.31" width="6.26" height="6.26"/><rect x="234.34" y="279.31" width="6.26" height="6.26"/><rect x="269.52" y="279.31" width="6.26" height="6.26"/><rect x="281.24" y="279.31" width="6.26" height="6.26"/><rect x="292.97" y="279.31" width="6.26" height="6.26"/><rect x="328.14" y="279.31" width="6.26" height="6.26"/><rect x="164.00" y="285.17" width="6.26" height="6.26"/><rect x="169.86" y="285.17" width="6.26" height="6.26"/><rect x="175.72" y="285.17" width="6.26" height="6.26"/><rect x="181.59" y="285.17" width="6.26" height="6.26"/><rect x="187.45" y="285.17" width="6.26" height="6.26"/><rect x="193.31" y="285.17" width="6.26" height="6.26"/><rect x="199.17" y="285.17" width="6.26" height="6.26"/><rect x="210.90" y="285.17" width="6.26" height="6.26"/><rect x="222.62" y="285.17" width="6.26" height="6.26"/><rect x="234.34" y="285.17" width="6.26" height="6.26"/><rect x="246.07" y="285.17" width="6.26" height="6.26"/><rect x="257.79" y="285.17" width="6.26" height="6.26"/><rect x="269.52" y="285.17" width="6.26" height="6.26"/><rect x="281.24" y="285.17" width="6.26" height="6.26"/><rect x="292.97" y="285.17" width="6.26" height="6.26"/><rect x="298.83" y="285.17" width="6.26" height="6.26"/><rect x="304.69" y="285.17" width="6.26" height="6.26"/><rect x="310.55" y="285.17" width="6.26" height="6.26"/><rect x="316.41" y="285.17" width="6.26" height="6.26"/><rect x="322.28" y="285.17" width="6.26" height="6.26"/><rect x="328.14" y="285.17" width="6.26" height="6.26"/><rect x="240.21" y="291.03" width="6.26" height="6.26"/><rect x="251.93" y="291.03" width="6.26" height="6.26"/><rect x="257.79" y="291.03" width="6.26" height="6.26"/><rect x="269.52" y="291.03" width="6.26" height="6.26"/><rect x="164.00" y="296.90" width="6.26" height="6.26"/><rect x="181.59" y="296.90" width="6.26" height="6.26"/><rect x="187.45" y="296.90" width="6.26" height="6.26"/><rect x="193.31" y="296.90" width="6.26" height="6.26"/><rect x="199.17" y="296.90" width="6.26" height="6.26"/><rect x="205.03" y="296.90" width="6.26" height="6.26"/><rect x="210.90" y="296.90" width="6.26" height="6.26"/><rect x="228.48" y="296.90" width="6.26" height="6.26"/><rect x="234.34" y="296.90" width="6.26" height="6.26"/><rect x="246.07" y="296.90" width="6.26" height="6.26"/><rect x="257.79" y="296.90" width="6.26" height="6.26"/><rect x="263.66" y="296.90" width="6.26" height="6.26"/><rect x="269.52" y="296.90" width="6.26" height="6.26"/><rect x="287.10" y="296.90" width="6.26" height="6.26"/><rect x="304.69" y="296.90" width="6.26" height="6.26"/><rect x="316.41" y="296.90" width="6.26" height="6.26"/><rect x="322.28" y="296.90" width="6.26" height="6.26"/><rect x="328.14" y="296.90" width="6.26" height="6.26"/><rect x="164.00" y="302.76" width="6.26" height="6.26"/><rect x="169.86" y="302.76" width="6.26" height="6.26"/><rect x="193.31" y="302.76" width="6.26" height="6.26"/><rect x="205.03" y="302.76" width="6.26" height="6.26"/><rect x="216.76" y="302.76" width="6.26" height="6.26"/><rect x="228.48" y="302.76" width="6.26" height="6.26"/><rect x="234.34" y="302.76" width="6.26" height="6.26"/><rect x="246.07" y="302.76" width="6.26" height="6.26"/><rect x="251.93" y="302.76" width="6.26" height="6.26"/><rect x="263.66" y="302.76" width="6.26" height="6.26"/><rect x="269.52" y="302.76" width="6.26" height="6.26"/><rect x="275.38" y="302.76" width="6.26" height="6.26"/><rect x="281.24" y="302.76" width="6.26" height="6.26"/><rect x="287.10" y="302.76" width="6.26" height="6.26"/><rect x="298.83" y="302.76" width="6.26" height="6.26"/><rect x="304.69" y="302.76" width="6.26" height="6.26"/><rect x="316.41" y="302.76" width="6.26" height="6.26"/><rect x="322.28" y="302.76" width="6.26" height="6.26"/><rect x="164.00" y="308.62" width="6.26" height="6.26"/><rect x="169.86" y="308.62" width="6.26" height="6.26"/><rect x="175.72" y="308.62" width="6.26" height="6.26"/><rect x="193.31" y="308.62" width="6.26" height="6.26"/><rect x="199.17" y="308.62" width="6.26" height="6.26"/><rect x="216.76" y="308.62" width="6.26" height="6.26"/><rect x="222.62" y="308.62" width="6.26" height="6.26"/><rect x="228.48" y="308.62" width="6.26" height="6.26"/><rect x="240.21" y="308.62" width="6.26" height="6.26"/><rect x="246.07" y="308.62" width="6.26" height="6.26"/><rect x="251.93" y="308.62" width="6.26" height="6.26"/><rect x="257.79" y="308.62" width="6.26" height="6.26"/><rect x="287.10" y="308.62" width="6.26" height="6.26"/><rect x="298.83" y="308.62" width="6.26" height="6.26"/><rect x="316.41" y="308.62" width="6.26" height="6.26"/><rect x="193.31" y="314.48" width="6.26" height="6.26"/><rect x="216.76" y="314.48" width="6.26" height="6.26"/><rect x="228.48" y="314.48" width="6.26" height="6.26"/><rect x="234.34" y="314.48" width="6.26" height="6.26"/><rect x="246.07" y="314.48" width="6.26" height="6.26"/><rect x="263.66" y="314.48" width="6.26" height="6.26"/><rect x="275.38" y="314.48" width="6.26" height="6.26"/><rect x="281.24" y="314.48" width="6.26" height="6.26"/><rect x="287.10" y="314.48" width="6.26" height="6.26"/><rect x="310.55" y="314.48" width="6.26" height="6.26"/><rect x="328.14" y="314.48" width="6.26" height="6.26"/><rect x="164.00" y="320.34" width="6.26" height="6.26"/><rect x="175.72" y="320.34" width="6.26" height="6.26"/><rect x="181.59" y="320.34" width="6.26" height="6.26"/><rect x="187.45" y="320.34" width="6.26" height="6.26"/><rect x="193.31" y="320.34" width="6.26" height="6.26"/><rect x="199.17" y="320.34" width="6.26" height="6.26"/><rect x="205.03" y="320.34" width="6.26" height="6.26"/><rect x="210.90" y="320.34" width="6.26" height="6.26"/><rect x="222.62" y="320.34" width="6.26" height="6.26"/><rect x="228.48" y="320.34" width="6.26" height="6.26"/><rect x="234.34" y="320.34" width="6.26" height="6.26"/><rect x="257.79" y="320.34" width="6.26" height="6.26"/><rect x="281.24" y="320.34" width="6.26" height="6.26"/><rect x="292.97" y="320.34" width="6.26" height="6.26"/><rect x="298.83" y="320.34" width="6.26" height="6.26"/><rect x="328.14" y="320.34" width="6.26" height="6.26"/><rect x="169.86" y="326.21" width="6.26" height="6.26"/><rect x="175.72" y="326.21" width="6.26" height="6.26"/><rect x="187.45" y="326.21" width="6.26" height="6.26"/><rect x="193.31" y="326.21" width="6.26" height="6.26"/><rect x="210.90" y="326.21" width="6.26" height="6.26"/><rect x="216.76" y="326.21" width="6.26" height="6.26"/><rect x="222.62" y="326.21" width="6.26" height="6.26"/><rect x="240.21" y="326.21" width="6.26" height="6.26"/><rect x="246.07" y="326.21" width="6.26" height="6.26"/><rect x="251.93" y="326.21" width="6.26" height="6.26"/><rect x="292.97" y="326.21" width="6.26" height="6.26"/><rect x="298.83" y="326.21" width="6.26" height="6.26"/><rect x="304.69" y="326.21" width="6.26" height="6.26"/><rect x="310.55" y="326.21" width="6.26" height="6.26"/><rect x="316.41" y="326.21" width="6.26" height="6.26"/><rect x="322.28" y="326.21" width="6.26" height="6.26"/><rect x="328.14" y="326.21" width="6.26" height="6.26"/><rect x="164.00" y="332.07" width="6.26" height="6.26"/><rect x="169.86" y="332.07" width="6.26" height="6.26"/><rect x="181.59" y="332.07" width="6.26" height="6.26"/><rect x="187.45" y="332.07" width="6.26" height="6.26"/><rect x="199.17" y="332.07" width="6.26" height="6.26"/><rect x="222.62" y="332.07" width="6.26" height="6.26"/><rect x="234.34" y="332.07" width="6.26" height="6.26"/><rect x="240.21" y="332.07" width="6.26" height="6.26"/><rect x="246.07" y="332.07" width="6.26" height="6.26"/><rect x="251.93" y="332.07" width="6.26" height="6.26"/><rect x="257.79" y="332.07" width="6.26" height="6.26"/><rect x="263.66" y="332.07" width="6.26" height="6.26"/><rect x="269.52" y="332.07" width="6.26" height="6.26"/><rect x="275.38" y="332.07" width="6.26" height="6.26"/><rect x="281.24" y="332.07" width="6.26" height="6.26"/><rect x="298.83" y="332.07" width="6.26" height="6.26"/><rect x="304.69" y="332.07" width="6.26" height="6.26"/><rect x="316.41" y="332.07" width="6.26" height="6.26"/><rect x="328.14" y="332.07" width="6.26" height="6.26"/><rect x="164.00" y="337.93" width="6.26" height="6.26"/><rect x="169.86" y="337.93" width="6.26" height="6.26"/><rect x="193.31" y="337.93" width="6.26" height="6.26"/><rect x="210.90" y="337.93" width="6.26" height="6.26"/><rect x="228.48" y="337.93" width="6.26" height="6.26"/><rect x="234.34" y="337.93" width="6.26" height="6.26"/><rect x="275.38" y="337.93" width="6.26" height="6.26"/><rect x="281.24" y="337.93" width="6.26" height="6.26"/><rect x="287.10" y="337.93" width="6.26" height="6.26"/><rect x="304.69" y="337.93" width="6.26" height="6.26"/><rect x="316.41" y="337.93" width="6.26" height="6.26"/><rect x="328.14" y="337.93" width="6.26" height="6.26"/><rect x="169.86" y="343.79" width="6.26" height="6.26"/><rect x="181.59" y="343.79" width="6.26" height="6.26"/><rect x="187.45" y="343.79" width="6.26" height="6.26"/><rect x="199.17" y="343.79" width="6.26" height="6.26"/><rect x="222.62" y="343.79" width="6.26" height="6.26"/><rect x="228.48" y="343.79" width="6.26" height="6.26"/><rect x="240.21" y="343.79" width="6.26" height="6.26"/><rect x="251.93" y="343.79" width="6.26" height="6.26"/><rect x="281.24" y="343.79" width="6.26" height="6.26"/><rect x="298.83" y="343.79" width="6.26" height="6.26"/><rect x="310.55" y="343.79" width="6.26" height="6.26"/><rect x="164.00" y="349.66" width="6.26" height="6.26"/><rect x="169.86" y="349.66" width="6.26" height="6.26"/><rect x="187.45" y="349.66" width="6.26" height="6.26"/><rect x="193.31" y="349.66" width="6.26" height="6.26"/><rect x="210.90" y="349.66" width="6.26" height="6.26"/><rect x="216.76" y="349.66" width="6.26" height="6.26"/><rect x="222.62" y="349.66" width="6.26" height="6.26"/><rect x="228.48" y="349.66" width="6.26" height="6.26"/><rect x="234.34" y="349.66" width="6.26" height="6.26"/><rect x="246.07" y="349.66" width="6.26" height="6.26"/><rect x="251.93" y="349.66" width="6.26" height="6.26"/><rect x="263.66" y="349.66" width="6.26" height="6.26"/><rect x="269.52" y="349.66" width="6.26" height="6.26"/><rect x="275.38" y="349.66" width="6.26" height="6.26"/><rect x="281.24" y="349.66" width="6.26" height="6.26"/><rect x="304.69" y="349.66" width="6.26" height="6.26"/><rect x="316.41" y="349.66" width="6.26" height="6.26"/><rect x="322.28" y="349.66" width="6.26" height="6.26"/><rect x="164.00" y="355.52" width="6.26" height="6.26"/><rect x="169.86" y="355.52" width="6.26" height="6.26"/><rect x="187.45" y="355.52" width="6.26" height="6.26"/><rect x="199.17" y="355.52" width="6.26" height="6.26"/><rect x="205.03" y="355.52" width="6.26" height="6.26"/><rect x="210.90" y="355.52" width="6.26" height="6.26"/><rect x="222.62" y="355.52" width="6.26" height="6.26"/><rect x="246.07" y="355.52" width="6.26" height="6.26"/><rect x="251.93" y="355.52" width="6.26" height="6.26"/><rect x="263.66" y="355.52" width="6.26" height="6.26"/><rect x="275.38" y="355.52" width="6.26" height="6.26"/><rect x="281.24" y="355.52" width="6.26" height="6.26"/><rect x="310.55" y="355.52" width="6.26" height="6.26"/><rect x="328.14" y="355.52" width="6.26" height="6.26"/><rect x="164.00" y="361.38" width="6.26" height="6.26"/><rect x="169.86" y="361.38" width="6.26" height="6.26"/><rect x="181.59" y="361.38" width="6.26" height="6.26"/><rect x="187.45" y="361.38" width="6.26" height="6.26"/><rect x="205.03" y="361.38" width="6.26" height="6.26"/><rect x="216.76" y="361.38" width="6.26" height="6.26"/><rect x="228.48" y="361.38" width="6.26" height="6.26"/><rect x="234.34" y="361.38" width="6.26" height="6.26"/><rect x="240.21" y="361.38" width="6.26" height="6.26"/><rect x="257.79" y="361.38" width="6.26" height="6.26"/><rect x="304.69" y="361.38" width="6.26" height="6.26"/><rect x="310.55" y="361.38" width="6.26" height="6.26"/><rect x="316.41" y="361.38" width="6.26" height="6.26"/><rect x="164.00" y="367.24" width="6.26" height="6.26"/><rect x="169.86" y="367.24" width="6.26" height="6.26"/><rect x="187.45" y="367.24" width="6.26" height="6.26"/><rect x="199.17" y="367.24" width="6.26" height="6.26"/><rect x="205.03" y="367.24" width="6.26" height="6.26"/><rect x="210.90" y="367.24" width="6.26" height="6.26"/><rect x="216.76" y="367.24" width="6.26" height="6.26"/><rect x="222.62" y="367.24" width="6.26" height="6.26"/><rect x="228.48" y="367.24" width="6.26" height="6.26"/><rect x="240.21" y="367.24" width="6.26" height="6.26"/><rect x="251.93" y="367.24" width="6.26" height="6.26"/><rect x="257.79" y="367.24" width="6.26" height="6.26"/><rect x="263.66" y="367.24" width="6.26" height="6.26"/><rect x="281.24" y="367.24" width="6.26" height="6.26"/><rect x="287.10" y="367.24" width="6.26" height="6.26"/><rect x="292.97" y="367.24" width="6.26" height="6.26"/><rect x="298.83" y="367.24" width="6.26" height="6.26"/><rect x="304.69" y="367.24" width="6.26" height="6.26"/><rect x="310.55" y="367.24" width="6.26" height="6.26"/><rect x="316.41" y="367.24" width="6.26" height="6.26"/><rect x="322.28" y="367.24" width="6.26" height="6.26"/><rect x="210.90" y="373.10" width="6.26" height="6.26"/><rect x="228.48" y="373.10" width="6.26" height="6.26"/><rect x="234.34" y="373.10" width="6.26" height="6.26"/><rect x="240.21" y="373.10" width="6.26" height="6.26"/><rect x="246.07" y="373.10" width="6.26" height="6.26"/><rect x="251.93" y="373.10" width="6.26" height="6.26"/><rect x="281.24" y="373.10" width="6.26" height="6.26"/><rect x="304.69" y="373.10" width="6.26" height="6.26"/><rect x="310.55" y="373.10" width="6.26" height="6.26"/><rect x="164.00" y="378.97" width="6.26" height="6.26"/><rect x="169.86" y="378.97" width="6.26" height="6.26"/><rect x="175.72" y="378.97" width="6.26" height="6.26"/><rect x="181.59" y="378.97" width="6.26" height="6.26"/><rect x="187.45" y="378.97" width="6.26" height="6.26"/><rect x="193.31" y="378.97" width="6.26" height="6.26"/><rect x="199.17" y="378.97" width="6.26" height="6.26"/><rect x="210.90" y="378.97" width="6.26" height="6.26"/><rect x="228.48" y="378.97" width="6.26" height="6.26"/><rect x="234.34" y="378.97" width="6.26" height="6.26"/><rect x="240.21" y="378.97" width="6.26" height="6.26"/><rect x="251.93" y="378.97" width="6.26" height="6.26"/><rect x="257.79" y="378.97" width="6.26" height="6.26"/><rect x="269.52" y="378.97" width="6.26" height="6.26"/><rect x="275.38" y="378.97" width="6.26" height="6.26"/><rect x="281.24" y="378.97" width="6.26" height="6.26"/><rect x="292.97" y="378.97" width="6.26" height="6.26"/><rect x="304.69" y="378.97" width="6.26" height="6.26"/><rect x="310.55" y="378.97" width="6.26" height="6.26"/><rect x="164.00" y="384.83" width="6.26" height="6.26"/><rect x="199.17" y="384.83" width="6.26" height="6.26"/><rect x="210.90" y="384.83" width="6.26" height="6.26"/><rect x="216.76" y="384.83" width="6.26" height="6.26"/><rect x="222.62" y="384.83" width="6.26" height="6.26"/><rect x="228.48" y="384.83" width="6.26" height="6.26"/><rect x="240.21" y="384.83" width="6.26" height="6.26"/><rect x="251.93" y="384.83" width="6.26" height="6.26"/><rect x="257.79" y="384.83" width="6.26" height="6.26"/><rect x="263.66" y="384.83" width="6.26" height="6.26"/><rect x="269.52" y="384.83" width="6.26" height="6.26"/><rect x="281.24" y="384.83" width="6.26" height="6.26"/><rect x="304.69" y="384.83" width="6.26" height="6.26"/><rect x="322.28" y="384.83" width="6.26" height="6.26"/><rect x="328.14" y="384.83" width="6.26" height="6.26"/><rect x="164.00" y="390.69" width="6.26" height="6.26"/><rect x="175.72" y="390.69" width="6.26" height="6.26"/><rect x="181.59" y="390.69" width="6.26" height="6.26"/><rect x="187.45" y="390.69" width="6.26" height="6.26"/><rect x="199.17" y="390.69" width="6.26" height="6.26"/><rect x="210.90" y="390.69" width="6.26" height="6.26"/><rect x="222.62" y="390.69" width="6.26" height="6.26"/><rect x="240.21" y="390.69" width="6.26" height="6.26"/><rect x="251.93" y="390.69" width="6.26" height="6.26"/><rect x="257.79" y="390.69" width="6.26" height="6.26"/><rect x="275.38" y="390.69" width="6.26" height="6.26"/><rect x="281.24" y="390.69" width="6.26" height="6.26"/><rect x="287.10" y="390.69" width="6.26" height="6.26"/><rect x="292.97" y="390.69" width="6.26" height="6.26"/><rect x="298.83" y="390.69" width="6.26" height="6.26"/><rect x="304.69" y="390.69" width="6.26" height="6.26"/><rect x="310.55" y="390.69" width="6.26" height="6.26"/><rect x="322.28" y="390.69" width="6.26" height="6.26"/><rect x="164.00" y="396.55" width="6.26" height="6.26"/><rect x="175.72" y="396.55" width="6.26" height="6.26"/><rect x="181.59" y="396.55" width="6.26" height="6.26"/><rect x="187.45" y="396.55" width="6.26" height="6.26"/><rect x="199.17" y="396.55" width="6.26" height="6.26"/><rect x="210.90" y="396.55" width="6.26" height="6.26"/><rect x="216.76" y="396.55" width="6.26" height="6.26"/><rect x="222.62" y="396.55" width="6.26" height="6.26"/><rect x="240.21" y="396.55" width="6.26" height="6.26"/><rect x="246.07" y="396.55" width="6.26" height="6.26"/><rect x="251.93" y="396.55" width="6.26" height="6.26"/><rect x="257.79" y="396.55" width="6.26" height="6.26"/><rect x="281.24" y="396.55" width="6.26" height="6.26"/><rect x="287.10" y="396.55" width="6.26" height="6.26"/><rect x="328.14" y="396.55" width="6.26" height="6.26"/><rect x="164.00" y="402.41" width="6.26" height="6.26"/><rect x="175.72" y="402.41" width="6.26" height="6.26"/><rect x="181.59" y="402.41" width="6.26" height="6.26"/><rect x="187.45" y="402.41" width="6.26" height="6.26"/><rect x="199.17" y="402.41" width="6.26" height="6.26"/><rect x="222.62" y="402.41" width="6.26" height="6.26"/><rect x="228.48" y="402.41" width="6.26" height="6.26"/><rect x="246.07" y="402.41" width="6.26" height="6.26"/><rect x="251.93" y="402.41" width="6.26" height="6.26"/><rect x="263.66" y="402.41" width="6.26" height="6.26"/><rect x="298.83" y="402.41" width="6.26" height="6.26"/><rect x="304.69" y="402.41" width="6.26" height="6.26"/><rect x="316.41" y="402.41" width="6.26" height="6.26"/><rect x="322.28" y="402.41" width="6.26" height="6.26"/><rect x="328.14" y="402.41" width="6.26" height="6.26"/><rect x="164.00" y="408.28" width="6.26" height="6.26"/><rect x="199.17" y="408.28" width="6.26" height="6.26"/><rect x="216.76" y="408.28" width="6.26" height="6.26"/><rect x="228.48" y="408.28" width="6.26" height="6.26"/><rect x="234.34" y="408.28" width="6.26" height="6.26"/><rect x="240.21" y="408.28" width="6.26" height="6.26"/><rect x="246.07" y="408.28" width="6.26" height="6.26"/><rect x="257.79" y="408.28" width="6.26" height="6.26"/><rect x="269.52" y="408.28" width="6.26" height="6.26"/><rect x="287.10" y="408.28" width="6.26" height="6.26"/><rect x="292.97" y="408.28" width="6.26" height="6.26"/><rect x="298.83" y="408.28" width="6.26" height="6.26"/><rect x="310.55" y="408.28" width="6.26" height="6.26"/><rect x="316.41" y="408.28" width="6.26" height="6.26"/><rect x="328.14" y="408.28" width="6.26" height="6.26"/><rect x="164.00" y="414.14" width="6.26" height="6.26"/><rect x="169.86" y="414.14" width="6.26" height="6.26"/><rect x="175.72" y="414.14" width="6.26" height="6.26"/><rect x="181.59" y="414.14" width="6.26" height="6.26"/><rect x="187.45" y="414.14" width="6.26" height="6.26"/><rect x="193.31" y="414.14" width="6.26" height="6.26"/><rect x="199.17" y="414.14" width="6.26" height="6.26"/><rect x="210.90" y="414.14" width="6.26" height="6.26"/><rect x="222.62" y="414.14" width="6.26" height="6.26"/><rect x="228.48" y="414.14" width="6.26" height="6.26"/><rect x="234.34" y="414.14" width="6.26" height="6.26"/><rect x="275.38" y="414.14" width="6.26" height="6.26"/><rect x="281.24" y="414.14" width="6.26" height="6.26"/><rect x="287.10" y="414.14" width="6.26" height="6.26"/><rect x="292.97" y="414.14" width="6.26" height="6.26"/><rect x="298.83" y="414.14" width="6.26" height="6.26"/><rect x="304.69" y="414.14" width="6.26" height="6.26"/><rect x="310.55" y="414.14" width="6.26" height="6.26"/></g>
    <text x="250" y="436" text-anchor="middle" font-size="12" font-weight="700" letter-spacing="2" fill="#64748b">SCAN TO REPORT</text>
  </g>
  <g filter="url(#soft)">
    <rect x="592" y="70" width="300" height="470" rx="44" fill="#0b1220"/>
    <rect x="608" y="86" width="268" height="438" rx="30" fill="#ffffff"/>
    <rect x="712" y="100" width="56" height="10" rx="5" fill="#0b1220"/>
  </g>
  <rect x="632" y="118" width="28" height="28" rx="8" fill="url(#brand)"/>
  <g fill="#fff"><rect x="638" y="124" width="6" height="6" rx="1"/><rect x="648" y="124" width="6" height="6" rx="1"/><rect x="638" y="134" width="6" height="6" rx="1"/><rect x="648" y="134" width="6" height="6" rx="1"/></g>
  <text x="670" y="131" font-size="15" font-weight="700" fill="#0f172a">Meeting Room 5</text>
  <text x="670" y="148" font-size="11" fill="#94a3b8">Level 2</text>
  <line x1="632" y1="164" x2="852" y2="164" stroke="#eef2ff" stroke-width="1.5"/>
  <text x="632" y="192" font-size="16" font-weight="700" fill="#0f172a">What needs fixing?</text>
  <rect x="632" y="206" width="111" height="34" rx="17" fill="url(#brand)"/><text x="652" y="228" font-size="13" font-weight="600" fill="#fff">Wi-Fi down</text>
  <rect x="632" y="248" width="118" height="34" rx="17" fill="#f8fafc" stroke="#e6ebf3"/><text x="652" y="270" font-size="13" fill="#475569">AC too cold</text>
  <rect x="632" y="290" width="111" height="34" rx="17" fill="#f8fafc" stroke="#e6ebf3"/><text x="652" y="312" font-size="13" fill="#475569">Coffee out</text>
  <rect x="632" y="338" width="220" height="70" rx="12" fill="#f8fafc" stroke="#e6ebf3"/>
  <g stroke="#cbd5e1" stroke-width="3" fill="none" stroke-linejoin="round"><path d="M700 390 l18 -20 l14 14 l10 -8 l16 16"/></g>
  <circle cx="704" cy="362" r="5" fill="#cbd5e1"/>
  <rect x="632" y="430" width="220" height="46" rx="14" fill="url(#brand)"/>
  <text x="742" y="459" text-anchor="middle" font-size="15" font-weight="700" fill="#fff">Send report</text>
</svg>
